<?xml version="1.0" standalone="no"?>
<!DOCTYPE svg PUBLIC "-//W3C//DTD SVG 20010904//EN"
 "http://www.w3.org/TR/2001/REC-SVG-20010904/DTD/svg10.dtd">
<svg version="1.0" xmlns="http://www.w3.org/2000/svg"
 width="400.000000pt" height="400.000000pt" viewBox="0 0 400.000000 400.000000"
 preserveAspectRatio="xMidYMid meet">
<metadata>
Created by potrace 1.14, written by Peter Selinger 2001-2017
</metadata>
<g transform="translate(0.000000,400.000000) scale(0.100000,-0.100000)"
fill="#000000" stroke="none">
<path d="M2385 2501 c-102 -27 -179 -90 -219 -180 -34 -76 -111 -550 -101
-623 16 -117 113 -191 249 -191 149 0 257 60 313 173 18 36 35 82 39 103 l6
38 -82 -3 -83 -3 -13 -45 c-17 -57 -57 -96 -110 -108 -78 -18 -136 7 -151 65
-7 32 62 492 82 538 27 66 104 105 180 91 50 -10 75 -47 75 -112 l0 -54 80 0
79 0 7 36 c19 104 -30 210 -121 257 -44 22 -175 33 -230 18z"/>
<path d="M730 2492 c0 -4 -34 -219 -75 -477 -41 -259 -75 -476 -75 -483 0 -10
20 -12 82 -10 l82 3 28 180 c15 99 30 190 33 203 5 22 6 22 204 22 l199 0 11
63 c6 35 11 69 11 75 0 9 -54 12 -200 12 -110 0 -200 3 -200 8 0 4 9 61 20
127 11 66 20 123 20 128 0 4 99 7 219 7 249 0 223 -11 237 98 l7 52 -302 0
c-165 0 -301 -4 -301 -8z"/>
<path d="M1657 2493 c-13 -23 -89 -681 -80 -695 2 -5 35 -8 73 -8 57 0 70 3
74 18 22 78 135 646 136 685 0 4 -45 7 -99 7 -55 0 -102 -3 -104 -7z"/>
<path d="M2854 2463 c3 -21 24 -231 46 -468 23 -236 43 -440 46 -452 4 -22 9
-23 103 -23 l98 0 202 483 c110 265 201 486 201 490 0 4 -38 7 -84 7 l-83 0
-149 -366 -149 -366 -32 344 c-17 189 -32 353 -32 366 -1 21 -5 22 -87 22
l-86 0 6 -37z"/>
<path d="M1554 1700 c-59 -23 -84 -114 -45 -161 17 -21 27 -24 94 -24 70 0 78
2 106 29 53 50 50 130 -5 155 -29 13 -119 14 -150 1z"/>
</g>
</svg>
